<svg width="278" height="260" xmlns="http://www.w3.org/2000/svg" xmlns:xlink="http://www.w3.org/1999/xlink"><defs><filter x="-32.2%" y="-18.2%" width="164.4%" height="136.3%" filterUnits="objectBoundingBox" id="a"><feOffset in="SourceAlpha" result="shadowOffsetOuter1"/><feGaussianBlur stdDeviation="8" in="shadowOffsetOuter1" result="shadowBlurOuter1"/><feColorMatrix values="0 0 0 0 0.105882353 0 0 0 0 0.266666667 0 0 0 0 0.474509804 0 0 0 0.15 0" in="shadowBlurOuter1"/></filter><filter x="-32%" y="-18.2%" width="164%" height="136.4%" filterUnits="objectBoundingBox" id="c"><feOffset in="SourceAlpha" result="shadowOffsetOuter1"/><feGaussianBlur stdDeviation="8" in="shadowOffsetOuter1" result="shadowBlurOuter1"/><feColorMatrix values="0 0 0 0 0.105882353 0 0 0 0 0.266666667 0 0 0 0 0.474509804 0 0 0 0.15 0" in="shadowBlurOuter1"/></filter><filter x="-21.4%" y="-10.5%" width="142.9%" height="121%" filterUnits="objectBoundingBox" id="e"><feOffset in="SourceAlpha" result="shadowOffsetOuter1"/><feGaussianBlur stdDeviation="8" in="shadowOffsetOuter1" result="shadowBlurOuter1"/><feColorMatrix values="0 0 0 0 0.105882353 0 0 0 0 0.266666667 0 0 0 0 0.474509804 0 0 0 0.15 0" in="shadowBlurOuter1"/></filter><rect id="d" x="0" y="0" width="75" height="131.859" rx="2"/><rect id="f" x="0" y="0" width="112" height="228.302" rx="16"/><path d="M2.597.755h70.566a2 2 0 012 2v128.213a2 2 0 01-2 2H2.597a2 2 0 01-2-2V2.755a2 2 0 012-2z" id="b"/></defs><g fill="none" fill-rule="evenodd"><g transform="translate(15 66)"><use fill="#000" filter="url(#a)" xlink:href="#b"/><use fill="#FFF" xlink:href="#b"/></g><path d="M17.466 112.25h67.068" stroke="#EDF3F7" stroke-linecap="square"/><text font-family="BLOKKNeue-Regular, BLOKK Neue" font-size="9" fill="#D3DCE6" transform="translate(15 66)"><tspan x="17" y="39">Tys </tspan> <tspan x="17" y="45">ing</tspan></text><path d="M17.466 129.25h67.068" stroke="#EDF3F7" stroke-linecap="square"/><text font-family="BLOKKNeue-Regular, BLOKK Neue" font-size="9" fill="#D3DCE6" transform="translate(15 66)"><tspan x="17" y="57">Tys </tspan> <tspan x="17" y="63">ing</tspan></text><path d="M17.466 147.25h67.068" stroke="#EDF3F7" stroke-linecap="square"/><text font-family="BLOKKNeue-Regular, BLOKK Neue" font-size="9" fill="#D3DCE6" transform="translate(15 66)"><tspan x="17" y="75">Tys </tspan> <tspan x="17" y="81">ing</tspan></text><path d="M17.466 165.25h67.068" stroke="#EDF3F7" stroke-linecap="square"/><text font-family="BLOKKNeue-Regular, BLOKK Neue" font-size="9" fill="#D3DCE6" transform="translate(15 66)"><tspan x="17" y="93">Tys </tspan> <tspan x="17" y="99">ing</tspan></text><path d="M17.466 182.25h67.068" stroke="#EDF3F7" stroke-linecap="square"/><text font-family="BLOKKNeue-Regular, BLOKK Neue" font-size="9" fill="#D3DCE6" transform="translate(15 66)"><tspan x="17" y="110">Tys </tspan> <tspan x="17" y="116">ing</tspan></text><text font-family="BLOKKNeue-Regular, BLOKK Neue" font-size="9" fill="#D3DCE6" transform="translate(15 66)"><tspan x="17" y="128">Tys </tspan> <tspan x="17" y="134">ing</tspan></text><path d="M18 67h71a2 2 0 012 2v26H16V69a2 2 0 012-2z" fill="#D3DCE6"/><g><g transform="translate(187 67)"><path d="M13.077 112.479h48.846a5.577 5.577 0 110 11.155H13.077a5.577 5.577 0 010-11.155z" fill="#D3DCE6"/><path d="M4.219 16.965h67.5" stroke="#EDF3F7" stroke-linecap="square"/><text font-family="BLOKKNeue-Regular, BLOKK Neue" font-size="9" fill="#D3DCE6"><tspan x="18.75" y="10.225">Tys </tspan> <tspan x="18.75" y="16.225">ing</tspan></text><use fill="#000" filter="url(#c)" xlink:href="#d"/><use fill="#FFF" xlink:href="#d"/><path d="M13.5 105.972h27.798a5.577 5.577 0 110 11.155H7.5v-5.155a6 6 0 016-6zM13.5 42.76h27.375a6 6 0 016 6v21.465a6 6 0 01-6 6H7.5V48.761a6 6 0 016-6zM61.5 79.944H34.125a6 6 0 00-6 6v10.31a6 6 0 006 6H67.5v-16.31a6 6 0 00-6-6zM61.5 27.887H33.702a5.577 5.577 0 100 11.155H67.5v-5.155a6 6 0 00-6-6z" fill="#D3DCE6"/><path d="M4.219 16.965h67.5" stroke="#EDF3F7" stroke-linecap="square"/><text font-family="BLOKKNeue-Regular, BLOKK Neue" font-size="9" fill="#D3DCE6"><tspan x="18.75" y="9.225">Tys </tspan> <tspan x="18.75" y="14.225">ing</tspan></text><ellipse fill="#D3DCE6" cx="9.375" cy="8.366" rx="5.625" ry="5.577"/></g></g><g><g transform="translate(86 16)"><use fill="#000" filter="url(#e)" xlink:href="#f"/><use fill="#FFF" xlink:href="#f"/><path d="M9 27.5A1.5 1.5 0 007.5 29v170.543a1.5 1.5 0 001.5 1.5h94a1.5 1.5 0 001.5-1.5V29a1.5 1.5 0 00-1.5-1.5H9z" stroke="#FF0D6A" fill="#FF0D6A"/><g transform="translate(17 91)" fill="#D12869"><rect width="19" height="19" rx="3"/><rect x="30" width="19" height="19" rx="3"/><rect x="60" width="19" height="19" rx="3"/></g><ellipse stroke="#EDF3F7" cx="55.763" cy="214.74" rx="8.763" ry="8.74"/></g><g transform="translate(99 140)"><rect fill="#D12869" y="1" width="9" height="9" rx="2"/><text font-family="BLOKKNeue-Regular, BLOKK Neue" font-size="8" fill="#D12869"><tspan x="14" y="5">oming</tspan></text><text font-family="BLOKKNeue-Regular, BLOKK Neue" font-size="7" fill="#D12869"><tspan x="14" y="10">Tys </tspan> <tspan x="14" y="14">oming</tspan></text><rect fill="#D12869" y="20" width="9" height="9" rx="2"/><text font-family="BLOKKNeue-Regular, BLOKK Neue" font-size="8" fill="#D12869"><tspan x="14" y="24">oming</tspan></text><text font-family="BLOKKNeue-Regular, BLOKK Neue" font-size="7" fill="#D12869"><tspan x="14" y="29">Tys </tspan> <tspan x="14" y="33">oming</tspan></text><rect fill="#D12869" y="40" width="9" height="9" rx="2"/><text font-family="BLOKKNeue-Regular, BLOKK Neue" font-size="8" fill="#D12869"><tspan x="14" y="44">oming</tspan></text><text font-family="BLOKKNeue-Regular, BLOKK Neue" font-size="7" fill="#D12869"><tspan x="14" y="49">Tys </tspan> <tspan x="14" y="53">oming</tspan></text><path d="M.59 35.5h86.217M.59 14.5h86.217" stroke="#E72B6E" stroke-linecap="square"/></g><path d="M95 43h94a2 2 0 012 2v52H93V45a2 2 0 012-2z" fill="#E72B6E"/><path d="M147.804 50.047c-2.041 0-3.44 1.275-4.649 2.855l.717 1.046c1.107-1.515 2.284-2.707 3.932-2.707 1.892 0 3.466 1.372 3.756 3.162h-4.698v1.194h5.915a4.93 4.93 0 00.036-.597c0-2.731-2.247-4.953-5.01-4.953" fill="#BD2A67"/><path d="M147.804 58.759c-2.015 0-3.345-1.74-5.032-4.294-1.688-2.553-3.281-4.418-5.752-4.418-2.762 0-5.01 2.222-5.01 4.953 0 2.731 2.248 4.953 5.01 4.953 2.037 0 3.435-1.27 4.642-2.847l-.711-1.053c-1.107 1.515-2.284 2.706-3.931 2.706-2.098 0-3.806-1.686-3.806-3.759 0-2.072 1.708-3.759 3.806-3.759 2.015 0 3.273 1.652 5.028 4.29 1.756 2.637 3.285 4.422 5.756 4.422a5.017 5.017 0 004.67-3.161h-1.326a3.816 3.816 0 01-3.344 1.967" fill="#BD2A67"/><path d="M101 66h83a2 2 0 012 2v11a2 2 0 01-2 2h-83a2 2 0 01-2-2V68a2 2 0 012-2z" fill="#FF0D6A"/><text font-family="InterUI-Regular, Inter UI" font-size="6" fill="#BD2A67" transform="translate(86 16)"><tspan x="18.204" y="60.668">æpp url</tspan></text></g></g></svg>